inDegrees=yes
name=ik_S50_A12_T01
DataType=double
version=3
OpenSimVersion=4.3-2021-08-27-4bc7ad9
endheader
time	pelvis_tilt	pelvis_list	pelvis_rotation	pelvis_tx	pelvis_ty	pelvis_tz	hip_flexion_r	hip_adduction_r	hip_rotation_r	knee_angle_r	knee_angle_r_beta	ankle_angle_r	subtalar_angle_r	mtp_angle_r	hip_flexion_l	hip_adduction_l	hip_rotation_l	knee_angle_l	knee_angle_l_beta	ankle_angle_l	subtalar_angle_l	mtp_angle_l	lumbar_extension	lumbar_bending	lumbar_rotation	arm_flex_r	arm_add_r	arm_rot_r	elbow_flex_r	pro_sup_r	wrist_flex_r	wrist_dev_r	arm_flex_l	arm_add_l	arm_rot_l	elbow_flex_l	pro_sup_l	wrist_flex_l	wrist_dev_l
16.97999999999973	-2.066205312193977	0.5296800340633634	33.60341054740108	0	0.9399999999999999	0	30.340606527789	-9.399166762644976	-8.672119052608071	33.25096165128539	0.5803387602693006	0	0	0	30.340606527789	-9.399166762644976	-8.672119052608071	33.25096165128539	0.5803387602693006	0	0	0	-0.9976654477527002	0.6153354539786916	10.62346532968907	8.486122523210025	-7.982501980891747	-7.310218378154357	6.968101163541069	131.102488956381	0	0	71.91449178806893	-14.40969185411716	11.40203503978836	46.24626228014867	59.01947668615198	0	0
16.99999999999973	-2.050993728393404	0.5272614815339748	33.98247052281991	0	0.9399999999999999	0	30.35886935067849	-9.401675822264123	-8.675683577125259	33.2705850332613	0.5806812528951568	0	0	0	30.35886935067849	-9.401675822264123	-8.675683577125259	33.2705850332613	0.5806812528951568	0	0	0	-0.9850791887231686	0.6035967909040573	10.29657570552909	8.496838145375412	-7.959725992029349	-7.192891562008916	6.995444322709447	131.1511603210124	0	0	68.02687138082153	-15.5812392435955	10.20828554548684	46.19062975448968	60.44487583768417	0	0
17.01999999999973	-2.018736630161507	0.5150211175066181	34.17587969666226	0	0.9399999999999999	0	30.36959020455348	-9.40314243394535	-8.677770268811399	33.28214847416218	0.5808830730117369	0	0	0	30.36959020455348	-9.40314243394535	-8.677770268811399	33.28214847416218	0.5808830730117369	0	0	0	-0.9650890472887323	0.5776425047265276	10.20535262582083	8.465455683456431	-7.938290446688435	-7.154808535726785	7.042848549623606	131.1268108874029	0	0	67.95934852327848	-15.32449023219485	10.23795495261409	44.00648046844442	61.00205604808875	0	0
17.03999999999973	-2.008438189790779	0.511918977172749	34.53732303813148	0	0.9399999999999999	0	30.37788488145598	-9.404279589913974	-8.679387321473135	33.29106886156279	0.5810387631424311	0	0	0	30.37788488145598	-9.404279589913974	-8.679387321473135	33.29106886156279	0.5810387631424311	0	0	0	-0.9532404596607107	0.5588047325885935	9.959028782881605	8.442596014014271	-7.899479005549611	-7.275648806541883	7.068602223747857	131.2399842390681	0	0	64.09275001535613	-16.15438089057609	8.885069276146053	45.50213258549523	61.72439013996179	0	0
17.05999999999973	-1.995239593992874	0.4895244708232543	34.79123924219357	0	0.9399999999999999	0	30.385978115714	-9.405387793351537	-8.680964211077377	33.29977319706487	0.5811906824561405	0	0	0	30.385978115714	-9.405387793351537	-8.680964211077377	33.29977319706487	0.5811906824561405	0	0	0	-0.9552039436176913	0.536280686728415	9.827373450352988	8.448016484957989	-7.92458916718248	-7.25564491983797	7.121244240568907	131.2235238961761	0	0	62.17641213178021	-16.67865215265042	8.230680845409287	47.39412123889487	61.97723801068746	0	0
17.07999999999972	-1.970540658457349	0.4660139066407238	34.95936492843439	0	0.9399999999999999	0	30.39527868898075	-9.40665233049465	-8.682768559563215	33.30982644653963	0.5813661447599995	0	0	0	30.39527868898075	-9.40665233049465	-8.682768559563215	33.30982644653963	0.5813661447599995	0	0	0	-0.9477209502611644	0.5033753629537584	9.750180736811357	8.450969923608143	-7.885905084813047	-7.22177610670362	7.18208803309343	131.2750135175695	0	0	62.12804935704151	-16.41030920802578	8.301044389185215	45.23669976923462	62.2285173990946	0	0
17.09999999999972	-1.945919266083577	0.4448011658958336	35.19227476931672	0	0.9399999999999999	0	30.40193857977538	-9.407561495785114	-8.684064202677257	33.31699355488941	0.5814912343985503	0	0	0	30.40193857977538	-9.407561495785114	-8.684064202677257	33.31699355488941	0.5814912343985503	0	0	0	-0.9389806912206082	0.4728616290753436	9.593306124052612	8.487064891310458	-7.855294668668719	-7.086878944429838	7.182488504373453	131.164710652345	0	0	59.92736286816706	-16.81295921923067	7.605141920126427	45.03133869500392	62.96768600016181	0	0
17.11999999999972	-1.918388636297264	0.4112621874273462	35.45142574040047	0	0.9399999999999999	0	30.41297447632893	-9.409069846277125	-8.686213312963336	33.32884462824025	0.5816980746484178	0	0	0	30.41297447632893	-9.409069846277125	-8.686213312963336	33.32884462824025	0.5816980746484178	0	0	0	-0.9351902151388328	0.4312604803043598	9.448874157740013	8.529713580332322	-7.789139533026693	-6.931951014650257	7.240147218555457	130.9798637976718	0	0	57.84216405995137	-17.14650598014496	6.950131909332748	44.52154213090937	64.11463073369845	0	0
17.13999999999972	-1.90320265976964	0.3724565585789247	35.67313199895802	0	0.9399999999999999	0	30.42405975069021	-9.410581972565812	-8.688369967057952	33.34075223286951	0.581905901555224	0	0	0	30.42405975069021	-9.410581972565812	-8.688369967057952	33.34075223286951	0.581905901555224	0	0	0	-0.944799540721977	0.3920867523356794	9.270963694925461	8.632354877847304	-7.710779251365143	-6.775713369263283	7.266625608921773	130.8244855560364	0	0	55.70913608230729	-17.55140972077001	6.171506961490825	44.05262201932334	65.31852600461082	0	0
17.15999999999972	-1.897010832602242	0.3265210881413095	35.83261057709105	0	0.9399999999999999	0	30.43606409387275	-9.412216235431869	-8.690703167211133	33.35365101406781	0.5821310277566287	0	0	0	30.43606409387275	-9.412216235431869	-8.690703167211133	33.35365101406781	0.5821310277566287	0	0	0	-0.9659732161799356	0.3507037384064535	9.098080877765179	8.816819946365836	-7.674759498458364	-6.764745233726079	7.20915140293513	130.8316578093048	0	0	53.62502597147839	-17.94185253414511	5.444485167700353	43.37956597874205	66.45652419730537	0	0
17.17999999999972	-1.894602450940586	0.2892196512054697	35.96300880677662	0	0.9399999999999999	0	30.44680269576928	-9.413674109902475	-8.692787252322532	33.36520132333732	0.5823326186830055	0	0	0	30.44680269576928	-9.413674109902475	-8.692787252322532	33.36520132333732	0.5823326186830055	0	0	0	-0.9837219218528187	0.315607915390588	8.904063742210694	8.963005128814434	-7.591900296868844	-6.762743936905266	7.271528932912909	130.8250292024499	0	0	51.31828364994875	-18.09291428831833	4.66334356993668	40.05937628806638	68.24270979903558	0	0
17.19999999999972	-1.896852335759604	0.2688161600943543	36.04731446980852	0	0.9399999999999999	0	30.45772973603165	-9.415154085429144	-8.694905303126959	33.37696290103374	0.582537896939037	0	0	0	30.45772973603165	-9.415154085429144	-8.694905303126959	33.37696290103374	0.582537896939037	0	0	0	-0.9969002454359297	0.2996404602193238	8.798355799323806	9.059588430200407	-7.611325390482156	-6.826236746837119	7.225738794340221	130.8611958432789	0	0	49.06947745612945	-18.60028880458425	4.282413443135407	42.33188255425434	68.05916143553578	0	0
17.21999999999972	-1.905040560565668	0.2751932572891987	36.32351534889803	0	0.9399999999999999	0	30.47630557594365	-9.417657283173327	-8.698497508654464	33.39696145002079	0.5828869374644824	0	0	0	30.47630557594365	-9.417657283173327	-8.698497508654464	33.39696145002079	0.5828869374644824	0	0	0	-0.9956130382119683	0.2975906472378828	8.520697935630547	9.056521131239231	-7.600877381766177	-6.819881011194458	7.279519759293934	130.7769345958481	0	0	44.57378555590516	-18.73266301791929	2.604574466673207	40.4589188492997	71.03188757300389	0	0
17.23999999999972	-1.906085757449152	0.2784243802694146	36.44694602584298	0	0.9399999999999999	0	30.48284917297067	-9.418536487620544	-8.699760305952696	33.4040297123337	0.5830103019142374	0	0	0	30.48284917297067	-9.418536487620544	-8.699760305952696	33.4040297123337	0.5830103019142374	0	0	0	-0.9933893404684055	0.2998557670873774	8.395735307054807	9.080166502672075	-7.641272182591661	-6.888207672646519	7.267467619325263	130.8486240638289	0	0	42.3047363212302	-18.89566512322497	1.824260910819365	42.34516028011096	71.39997662187213	0	0
17.25999999999972	-1.923923774635942	0.1548817877780544	36.51404664149108	0	0.9399999999999999	0	30.49206933540721	-9.41977919421592	-8.701543565418424	33.41395249276482	0.5831834871037129	0	0	0	30.49206933540721	-9.41977919421592	-8.701543565418424	33.41395249276482	0.5831834871037129	0	0	0	-1.080071313388341	0.2112297535156547	8.219900314123111	9.280388432879766	-7.510434227754526	-6.783496603317212	7.337144281161623	130.8734930080873	0	0	40.18364246815556	-18.98992975878126	0.8665168146771673	41.50195458604276	72.88972087712968	0	0
17.27999999999972	-1.927092838622145	0.1127856251433175	36.65145010177093	0	0.9399999999999999	0	30.50298229544496	-9.421238941577174	-8.703644607271801	33.4257581643476	0.5833895349432415	0	0	0	30.50298229544496	-9.421238941577174	-8.703644607271801	33.4257581643476	0.5833895349432415	0	0	0	-1.107260732945474	0.1815220216505096	8.051342997564578	9.340118042371214	-7.471910240148667	-6.584818427289266	7.397178752472555	130.7390376377946	0	0	40.23772207632175	-18.85369351880489	0.6811536414504425	38.53144038341777	73.84054969195195	0	0
17.29999999999972	-1.923569183273242	0.09606775411283067	36.7956068208682	0	0.9399999999999999	0	30.51281244373759	-9.422558777274499	-8.705542195690573	33.43634539264461	0.5835743169356846	0	0	0	30.51281244373759	-9.422558777274499	-8.705542195690573	33.43634539264461	0.5835743169356846	0	0	0	-1.115263470018355	0.1719614153864185	7.868401183443352	9.387691155907133	-7.45468624979923	-6.298776673426097	7.457532813716412	130.5197971026842	0	0	37.89444573167603	-18.94014448418913	-0.1770564804680727	40.56480759652793	74.18664225051081	0	0
17.31999999999972	-1.931881973204799	0.05905783263943959	36.98579365863168	0	0.9399999999999999	0	30.52253248465259	-9.423861744422851	-8.707417089893228	33.44681579140338	0.583757059868022	0	0	0	30.52253248465259	-9.423861744422851	-8.707417089893228	33.44681579140338	0.583757059868022	0	0	0	-1.143487079014806	0.1417621781862495	7.618685501536087	9.46482781627482	-7.429237516564994	-6.109835465634079	7.521373677681569	130.3738928713403	0	0	35.7160779918601	-18.62986273713817	-1.50886981516721	36.40007851586977	77.03879632491463	0	0
